<?xml version="1.0" encoding="UTF-8"?> <svg xmlns="http://www.w3.org/2000/svg" width="368" height="63" viewBox="0 0 368 63" fill="none"> <path d="M31.1163 3.52958L56.896 58.0328V61.0699H0V58.0328L27.7501 3.52958H31.1163ZM17.1591 49.5783H40.1474L29.1458 26.1025L17.1591 49.5783ZM71.267 61.0699V0H81.7759V61.0699H71.267ZM135.884 61.0699H122.419L110.597 46.7053L108.216 49.1678V61.0699H96.7216V0H108.216V37.1016L118.725 25.692H132.764L118.396 40.467L135.884 61.0699ZM170.78 50.317L178.498 55.4882C175.131 59.5103 169.959 62.0549 164.294 62.0549C153.949 62.0549 145.493 53.6003 145.493 43.2578C145.493 32.8333 153.949 24.4608 164.294 24.4608C174.639 24.4608 183.095 32.8333 183.095 43.2578C183.095 44.407 183.013 45.4741 182.767 46.6233H156.33C156.823 47.9366 157.48 49.0858 158.383 50.0708C160.107 51.9587 162.324 52.9437 164.705 52.9437C166.921 52.9437 169.138 51.9587 170.78 50.317ZM156.166 40.3849H173.161C172.75 38.9074 172.012 37.512 170.944 36.3629C169.302 34.557 167.003 33.572 164.705 33.572C162.324 33.572 160.107 34.557 158.383 36.3629C157.398 37.512 156.659 38.9074 156.166 40.3849ZM207.072 25.692L208.632 28.4829C211.177 26.2666 214.461 24.707 217.581 24.707C222.671 24.707 227.105 27.4158 230.06 31.6841C232.934 27.4158 237.531 24.707 242.54 24.707C251.324 24.707 258.467 33.0795 258.467 43.5041V61.0699H249.272V43.5041C249.272 38.4149 246.07 33.9004 241.39 33.9004C236.793 33.9004 233.755 38.497 233.591 42.9295V61.0699H224.395V43.5041C224.395 38.4149 221.111 33.9004 216.514 33.9004C212.491 33.9004 209.946 37.0195 208.96 40.7133V61.0699H199.108V25.692H207.072ZM274.891 15.0212V3.52958H285.482V15.0212H274.891ZM274.891 61.0699V25.692H285.482V61.0699H274.891ZM298.868 55.6524L305.436 49.0037C310.608 54.9137 318.49 55.1599 318.49 50.7274C318.49 48.1008 315.945 47.2799 313.317 46.4591C306.421 44.3249 301.659 42.1908 301.659 35.3779C301.659 28.8933 307.488 24.625 314.221 24.625C320.296 24.625 323.58 25.9383 328.342 28.8112L323.58 36.2808C316.684 31.3558 312.004 31.7662 311.511 35.542C311.101 38.1687 314.959 38.6612 319.064 40.0566C324.073 41.5341 328.752 44.8995 328.752 50.9737C328.752 56.6374 322.923 62.0549 315.698 62.0549C309.294 62.0549 303.219 60.0028 298.868 55.6524ZM359.79 25.692H368V35.2958H359.79V61.0699H349.363V35.2958H341.974V25.692H349.363V12.5587H359.79V25.692Z" fill="white"></path> </svg> 